<svg xmlns="http://www.w3.org/2000/svg" viewBox="0 0 256 256" fill="#fff">
  <path fill="#699" d="M0 0h256v256H0z" />
  <path d="M99.7 42.7c0-2 1.7-3.7 3.7-3.7v-8.3a12 12 0 0 0-12.1 12zm15.2-12h8.3V39h-8.3zm19.6 0h8.3V39h-8.3zm19.7.1h8.3v8.3h-8.3zm19.7-.1h8.3V39h-8.3zm19.6 0h8.3V39h-8.3zm19.7 8.4c2 0 3.7 1.7 3.7 3.7h8.3a12 12 0 0 0-12-12.1zm3.7 15.1h8.3v8.3h-8.3zm0 19.6h8.3v8.3h-8.3zm0 19.7h8.3v8.3h-8.3zm0 19.7h8.3v8.3h-8.3zm0 19.6h8.3v8.3h-8.3zm0 19.7c0 2-1.7 3.7-3.7 3.7v8.3a12 12 0 0 0 12.1-12zm-23.4 3.7h8.3v8.3h-8.3zM91.4 54.2h8.3v8.3h-8.3z"/>
  <path d="M39 103.4c0-2 1.7-3.7 3.7-3.7v-8.3a12 12 0 0 0-12.1 12zm-8.3 11.5H39v8.3h-8.3zm0 19.6H39v8.3h-8.3zm0 19.7H39v8.3h-8.3zm0 19.7H39v8.3h-8.3zm0 19.6H39v8.3h-8.3zm12 23.3c-2 0-3.7-1.7-3.7-3.7h-8.3a12 12 0 0 0 12 12.1zm11.5.2h8.3v8.3h-8.3zm19.6-.1h8.3v8.3h-8.3zm19.7 0h8.3v8.3h-8.3zm19.7 0h8.3v8.3h-8.3zm19.6 0h8.3v8.3h-8.3zm23.4-3.7c0 2-1.7 3.7-3.7 3.7v8.3a12 12 0 0 0 12.1-12zm0-19.7h8.3v8.3h-8.3zM54.1 91.4h8.3v8.3h-8.3z"/>
  <path d="M182.8 69.4c2 0 3.7 1.7 3.7 3.7v109.6c0 2-1.7 3.7-3.7 3.7H73.1c-2 0-3.7-1.7-3.7-3.7V73.1c0-2 1.7-3.7 3.7-3.7h109.7m0-8.3H73.1A12 12 0 0 0 61 73.2v109.6a12 12 0 0 0 12.1 12.1h109.6a12 12 0 0 0 12.1-12.1V73.1a12 12 0 0 0-12-12z"/>
  <path d="m77.8 175 26.7-34.2 26.8 34.2z"/>
  <path d="m103.4 175 37.3-47.8 37.4 47.8z"/>
  <path fill="#699" opacity=".3" d="m137.8 169.9-15.2-19.5-5.3 6.8 14 17.8h10.5z"/>
</svg>