<svg xmlns="http://www.w3.org/2000/svg" viewBox="0 0 64 64"><defs><style>.cls-4{fill:#131313}</style></defs><rect id="BG-Color" width="64" height="64" rx="4" ry="4" style="fill:#79b199"/><g id="ExtentionIcons"><g style="opacity:.4"><path d="m38.25 35.089-5 2.178L27 34l-5 3.484V42h20v-4.461z" style="fill:#131313"/></g><path d="M50.5 12h-21a1.5 1.5 0 0 0-1.5 1.5V17h3.429v-1.572H48.57v17.143H47V36h3.5a1.5 1.5 0 0 0 1.5-1.5v-21a1.5 1.5 0 0 0-1.5-1.5M32.571 48.572H15.43V31.429H17V28h-3.5a1.5 1.5 0 0 0-1.5 1.5v21a1.5 1.5 0 0 0 1.5 1.5h21a1.5 1.5 0 0 0 1.5-1.5V47h-3.429z" class="cls-4"/><path d="M42.5 20h-21a1.5 1.5 0 0 0-1.5 1.5v21a1.5 1.5 0 0 0 1.5 1.5h21a1.5 1.5 0 0 0 1.5-1.5v-21a1.5 1.5 0 0 0-1.5-1.5M23.429 40.571V23.43H40.57V40.57z" class="cls-4"/></g></svg>